<svg xmlns="http://www.w3.org/2000/svg"><symbol id="icon-boomerang"><g fill="#AEDDD5"><path d="M65.786 50.599a2 2 0 0 0 2.06-1.98c.053-4.61.083-11.825.08-19.792a2.07 2.07 0 0 0-2.037-2.061 2 2 0 0 0-2.035 2.005c.004 7.952-.025 15.147-.08 19.742a2.07 2.07 0 0 0 2.012 2.086zm-.538 7.353a2.01 2.01 0 0 0 2.362-1.607l.02-.11a2.043 2.043 0 0 0-1.64-2.362 2.014 2.014 0 0 0-2.351 1.622l-.016.085a2.043 2.043 0 0 0 1.625 2.372z"/><path d="M10.18 79.482c2.762-.08 37.584-2.486 47.72-3.459 5.163-.494 9.64-2.517 12.604-5.696 2.963-3.178 4.67-7.784 4.803-12.97.17-6.592.16-46.873.121-47.845a9.204 9.204 0 0 0-2.944-6.389A9.203 9.203 0 0 0 65.905.632a8.981 8.981 0 0 0-6.358 2.864 9.01 9.01 0 0 0-2.214 4.227 2.097 2.097 0 0 0-.02.11c-.055.318-4.99 28.991-6.025 33.877-1.076 5.077-3.246 7.449-3.329 7.539-.038.036-.039.039-.073.078-.091.097-2.28 2.4-7.27 3.827-6.492 1.858-33.421 8.387-33.482 8.406v-.004a9.011 9.011 0 0 0-4.063 2.503 8.983 8.983 0 0 0-2.414 6.543 9.204 9.204 0 0 0 2.945 6.388 9.204 9.204 0 0 0 6.578 2.492zM61.397 8.608A4.923 4.923 0 0 1 62.6 6.342a4.912 4.912 0 0 1 3.476-1.566 5.033 5.033 0 0 1 3.597 1.363 5.034 5.034 0 0 1 1.61 3.493c.013.322.025 1.092.036 2.209l-10.521.303.6-3.536zm-1.314 7.706l11.26-.325c.006 1.21.01 2.55.013 3.987l-11.964.345c.244-1.407.476-2.756.691-4.007zM41.803 57.14c5.843-1.671 8.634-4.431 9.134-4.968l.065-.07c.505-.54 3.085-3.54 4.346-9.486.7-3.308 2.063-10.926 3.32-18.125l12.694-.366c.009 11.623-.043 26.9-.203 33.074-.106 4.123-1.457 7.87-3.707 10.282-2.25 2.413-5.894 4.022-9.999 4.415-6.145.59-21.386 1.708-32.984 2.51l-.52-12.686c7.12-1.762 14.577-3.642 17.854-4.58zm-21.964 5.593l.49 11.957c-1.435.097-2.771.187-3.978.266l-.461-11.254 3.95-.969zm-15.036 7.75a4.91 4.91 0 0 1 1.32-3.578A4.924 4.924 0 0 1 8.3 65.55l.047-.011 3.434-.834.43 10.516a96.668 96.668 0 0 1-2.2.118 5.031 5.031 0 0 1-3.597-1.363 5.034 5.034 0 0 1-1.61-3.493z"/></g></symbol><symbol id="icon-coupon"><g fill="#B7DEC5"><path d="M39.546 101.899l41.099-48.98-.455-5.441 5.437-.496 11.208-13.358a1.93 1.93 0 0 0-.227-2.72L61.251 1.234a1.93 1.93 0 0 0-2.718.25L47.325 14.843l.453 5.438-5.435.5L1.244 69.758a1.927 1.927 0 0 0 .228 2.718l35.357 29.668c.814.683 2.03.573 2.717-.246zM5.433 70.745L44.255 24.48l3.845-.35 3.847-.35-.325-3.848-.323-3.847L60.231 5.44l32.412 27.197-8.932 10.644-3.843.35-3.844.35.32 3.849.323 3.846-38.822 46.266L5.433 70.745z"/><path d="M57.96 64.398a7.5 7.5 0 1 0-11.489-9.641 7.5 7.5 0 0 0 11.488 9.64zm-8.618-7.232a3.756 3.756 0 0 1 5.284-.463 3.755 3.755 0 0 1 .46 5.284 3.754 3.754 0 0 1-5.283.463 3.755 3.755 0 0 1-.461-5.284zM36.506 66.63c2.84-3.386 2.571-8.287-.6-10.949-3.173-2.662-8.05-2.078-10.89 1.307-2.84 3.383-2.567 8.288.605 10.95 3.172 2.661 8.046 2.075 10.885-1.309zm-8.617-7.231c1.419-1.691 3.858-1.984 5.444-.653 1.583 1.328 1.718 3.781.3 5.472-1.419 1.69-3.857 1.982-5.44.654-1.587-1.33-1.722-3.784-.304-5.473z"/><path d="M44.1 80.915c.344-.41.49-.921.447-1.416l-3.344-38.212a1.94 1.94 0 0 0-3.861.339l3.345 38.212a1.939 1.939 0 0 0 3.413 1.077zm30.006-38.871a2 2 0 1 0-3.068-2.569 2 2 0 0 0 3.068 2.569zm-5.363-4.5a2 2 0 1 0-3.067-2.568 2 2 0 0 0 3.067 2.568zm-6.128-5.142a2 2 0 1 0-3.069-2.569 2 2 0 0 0 3.07 2.57zm-6.128-5.142a2 2 0 1 0-3.067-2.57 2 2 0 0 0 3.067 2.57z"/></g></symbol><symbol id="icon-email"><path d="M17.896.678a.635.635 0 0 0-.626-.626H.73a.635.635 0 0 0-.626.626V14.87c0 .026 0 .052.026.052 0 .026.027.026.027.052s.026.026.026.052.026.026.026.052.026.026.026.052l.052.053s0 .026.026.026h.026a.534.534 0 0 0 .157.104h.026c.052.026.13.026.182.026h16.54c.078 0 .13-.026.182-.026h.026c.052-.026.105-.052.157-.104h.026s0-.026.026-.026l.052-.053c.026-.026.026-.026.026-.052s.026-.026.026-.052.026-.026.026-.052.026-.026.026-.052.026-.052.026-.052V.679h.053zM1.356 4.8l4.331 3.026-4.33 5.165V4.8zm5.348 3.73l1.93 1.33A.599.599 0 0 0 9 9.966c.13 0 .26-.026.365-.104l1.93-1.33 4.618 5.556H2.087L6.704 8.53zm5.609-.704l4.33-3.026v8.191l-4.33-5.165zm4.33-6.522v1.957L9 8.609 1.357 3.287V1.304h15.286z"/></symbol><symbol id="icon-header-logo"><g fill="none" fill-rule="evenodd"><path fill="#F1C1C3" d="M49.367 12.478l-3.258-2.693-3.449 3.51-4.023-3.51-2.684 2.693 1.438 3.18 5.27 4.58 5.747-4.58z"/><g fill="#526C84"><path d="M18.709 22.933a76.723 76.723 0 0 0-.125-2.073l-.25-3.608.126-3.8.54-4.109c.055-1.714.04-2.84-.042-3.378-.056-.28-2.02-.422-5.895-.422l-1.286.154-.955 12.668A9.99 9.99 0 0 1 9.16 23.01h.748l8.8-.077zM3.39 22.304c.83-.46 1.356-.78 1.578-.959.47-.409.774-1.19.913-2.342l.083-1.42c.027-.589.055-.999.083-1.229.22-1.484.54-3.749.955-6.795l.207-4.875v-.039L5.508 1c.47-.538 1.48-.832 3.03-.883.333 0 4.636.064 12.91.192 1.495 0 2.326.18 2.49.537.057.512.07.935.043 1.267-.056.82-.18 4.568-.373 11.248l-.167 8.983v.23c1.55.23 2.31.525 2.284.883l.597 3.84c-.028 1.33-.056 4.42-.084 4.803 0 .204.016 2.424-.011 2.936-.83.077-2.326.347-3.2-.68-1.073-.853-1.966-.977-1.993-1.565-.277-.359-.36-.602-.25-.73l.125-.192c-.028-.333-.041-3.255-.041-4.304-1.495.051-4.151.051-7.971 0-.72-.026-3.21-.282-7.472-.768 0 .486-.014 5.96-.041 7.496l.124.192c.11.127-1.34 1.36-2.323 1.807-1.241.566-1.575 1.35-2.212.992-.221-.23-.114-1.813-.114-2.017-.028-.538-.07-6.999-.124-8.969 0-.768-.028-1.395-.084-1.88L.527 23.34c.055-.69.415-1.037 1.079-1.037H3.39zm48.079-10.307c-.116-.24-.376-.642-.781-1.204-.347-.508-.564-.896-.651-1.163-.52-1.47-1.36-2.42-2.516-2.849-1.157-.454-1.78-.682-1.866-.682-2.024-.213-3.774-.32-5.25-.32a4.81 4.81 0 0 0-1.864.36c-1.39.027-2.864 1.231-4.426 3.611-1.446 2.167-2.17 3.905-2.17 5.216 0 .615.507 1.7 1.52 3.25 1.099 1.792 2.733 3.21 4.902 4.252 1.822.883 3.542 1.324 5.163 1.324 2.226 0 4.25-1.069 6.073-3.209 1.678-1.953 2.517-3.865 2.517-5.738a6.369 6.369 0 0 0-.651-2.848m1.04 12.357c-2.95 2.595-6.897 3.892-11.842 3.892-2.43 0-4.527-.869-6.291-2.608-.087-.107-.275-.227-.564-.362-.347-.133-.58-.253-.695-.36-2.4-2.167-3.673-3.397-3.817-3.69-1.07-2.248-1.605-4.642-1.605-7.183 0-1.444.607-3.223 1.822-5.336 1.533-2.755 3.21-4.587 5.032-5.497C38.25 1.42 40.868.523 42.402.523c1.793 0 3.21.2 4.25.601 4.6 1.632 7.637 4.04 9.112 7.222.868 1.953 1.3 3.597 1.3 4.935 0 4.708-1.517 8.4-4.554 11.073m19.762-8.693a15.683 15.683 0 0 0-3.857-.494c-.739 0-1.552.102-2.438.305-.237.303-.355.558-.355.76 0 .532-.03 1.355-.088 2.47l-.089.936c0 .508.104 1.116.31 1.825h1.065c1.536 0 3.206-.304 5.009-.912 2.363-.785 3.546-1.075 3.546-2.343 0-1.14-1.035-1.989-3.103-2.547zM64.692.19C69.626.265 74.782.151 79.719 0c.236.28.355.951.355 2.015 0 1.496-.326 2.243-.975 2.243l-5.144-.266c-2.718 0-5.29.076-7.712.228l-1.152.076-.4-4.106zm13.83 13.533c.886.28 1.447.572 1.684.875.798 1.064 1.197 2.535 1.197 4.41 0 2.306-1.213 3.319-3.635 4.51-1.98.963-4.477 1.47-7.492 1.52-.206 0-.62.064-1.24.19-.62.127-.975.19-1.064.19h-7.536c-.089-.785-.016-2.268.221-4.448.237-2.457.356-3.343.356-4.128 0-.66-.237-3.155-.71-7.49V5.019c.296-3.37.444-4.93.444-4.676.206-.38 1.52-.43 3.945-.152.414 3.269.62 5.234.62 5.893 0 .684.25 2.318.754 4.903l.709-.114 3.413.114c1.862 0 4.64.912 8.334 2.736zM96.511 6.58c-1.135-.447-2.2-.671-3.196-.671l-2.989.395c-.11.552-.166 1.25-.166 2.092 0 .5.068 1.369.207 2.605.167 1.474.25 2.145.25 2.013.027.053.082.093.166.119l.207.158c2.712-.026 4.414-.132 5.106-.316 1.937-.526 2.906-1.763 2.906-3.711 0-1.157-.83-2.052-2.49-2.684m4.482 8.842c-2.103 1.71-4.15 2.566-6.143 2.566-.083 0-.664-.105-1.744-.316-1.052-.21-1.633-.316-1.744-.316-.387 0-.733.158-1.037.474l-.29 3.395v6.66c0 .107.041.29.124.554.083.316.125.54.125.67.082.528-.112.856-.582.988h-4.068l-.124-1.58c-.195-5.393-.29-10.371-.29-11.871V12.62c0-.105-.043-.277-.126-.514-.083-.236-.124-.407-.124-.513-.11-.815-.166-2.433-.166-4.855 0-2.236.11-3.908.332-5.013.25-.184.54-.276.872-.276.11 0-.327.039.254.118.581.105.927.158 1.038.158l3.233-.276c1.411-.132 2.338-.145 2.781-.04-.166-.052.276-.08 1.328-.08.442 0 1.661.199 3.653.593 2.38.5 4.04 1.46 4.982 2.882.718 1.079 1.08 2.592 1.08 4.539 0 2.185-1.122 4.21-3.364 6.079m15.681.165a22.463 22.463 0 0 0-1.619-3.762c-.332.717-.747 1.945-1.245 3.685-.47 1.51-.94 2.662-1.412 3.455.526-.025 1.467-.012 2.824.039 1.355.076 2.337.102 2.947.076-.72-1.535-1.218-2.7-1.495-3.493zm5.786 11.8c-.47-.665-1.774-2.472-2.299-3.93-6.532.153-9.783.218-9.755.192.25-.128-2.62 3.102-3.784 5.226h-5.354c1.272-2.38 5.817-10.18 8.806-18.931.11-.384.526-1.164 1.245-2.342.885-1.46 1.453-2.431 1.702-2.917-.166.332.512-1.165 2.034-4.492.471.205.844.602 1.121 1.19.193.359.401.935.623 1.728.25.92.442 1.535.581 1.843.138.358.498 1.074 1.08 2.149.58 1.127.981 1.945 1.203 2.457 3.514 8.83 6.685 15.268 7.903 17.827h-5.106zm11.483-18.749c0 1.024.317 1.843.954 2.457.277.256 1.218.461 2.824.614l1.37.231c.58.102.926.153 1.037.153 1.245.026 2.31-.128 3.197-.46.387-.154.581-1.203.581-3.149l-.125-1.497c-.11-.946-.166-1.637-.166-2.073-.913.231-1.398.346-1.453.346l-3.113-.307c-1.328-.026-2.463.217-3.405.73-1.135.665-1.7 1.65-1.7 2.955m-4.65 18.196c.138-.614.567-1.42 1.286-2.418.83-1.203 1.412-2.2 1.744-2.995 1.687-3.889 2.49-5.77 2.408-5.643-1.55-.127-2.838-1.24-3.86-3.339-.859-1.766-1.288-3.456-1.288-5.068 0-.665.013-1.1.042-1.305.11-.768.94-1.74 2.491-2.918 1.55-1.176 2.795-1.804 3.736-1.88 3.762-.359 6.447-.525 8.053-.5 2.268.077 5.192.36 5.552.845-.083.537-.083 1.446 0 2.726.027.614.083 1.433.166 2.456l.125 1.46v17.543l-.415.522c-.278-.077-2.232.655-2.647.63.304.025-.747.127-3.155.307l-.124-.533c-.056-1.586-.028-5.737.082-7.99.084-1.407.055-2.162-.082-2.265-.167 0-.859-.076-2.076-.23-.83-.128-1.398-.025-1.702.307-2.989 2.995-4.69 6.334-5.106 10.02.166.434-.706.627-2.616.576-1.328-.026-2.2-.129-2.615-.308"/><path d="M22.262 43.41c-.135-.18-.42-.47-.854-.872-.376-.365-.62-.65-.734-.855-.663-1.122-1.532-1.779-2.607-1.973-1.08-.215-1.657-.317-1.734-.306-1.807.095-3.358.24-4.653.433a4.525 4.525 0 0 0-1.587.54c-1.215.204-2.343 2.123-3.381 4.255-.967 1.944-1.358 3.446-1.175 4.506.086.498.68 1.308 1.787 2.43 1.215 1.304 2.849 1.485 4.899 2.043 1.723.474 3.295.604 4.718.39 1.955-.294 3.583-.676 4.883-2.649 1.2-1.8 1.669-3.459 1.407-4.974-.142-.822-.465-2.312-.97-2.969m2.642 10.611c-2.227 2.49-5.512 4.06-9.854 4.713-2.133.32-4.902.644-6.694-.53-.091-.075-.273-.147-.546-.218-.323-.062-.543-.128-.66-.2-2.41-1.436-4.505-3.013-4.673-3.232a12.883 12.883 0 0 1-2.413-5.599c-.202-1.169.083-4.189.854-6.059.96-2.43 3.79-4.886 5.263-5.862 2.999-1.939 5.17-2.259 6.517-2.462 1.575-.236 2.847-.26 3.817-.074 4.266.713 7.269 2.26 9.009 4.641 1.034 1.465 1.645 4.24 1.832 5.321.658 3.81-.16 6.997-2.452 9.561m19.549-6.531a13.46 13.46 0 0 0-3.58-.499c-.686 0-1.44.103-2.264.307-.22.307-.33.564-.33.768 0 .538-.027 1.369-.081 2.495l-.082 1.689c0 .513.096 1.127.287 1.843h.988c1.427 0 2.977-.307 4.65-.921 2.195-.793 3.292-1.83 3.292-3.11 0-1.151-.96-2.009-2.88-2.572m1.358-10.312a7.949 7.949 0 0 0-3.663-.883c-1.18 0-2.496.218-3.95.653-.138.409-.206.947-.206 1.612 0 .691.233 1.598.7 4.208l.658-.115 3.169.115c1.728 0 2.949-.14 3.662-.422 1.207-.486 1.81-.74 1.81-2.25 0-1.229-.726-2.201-2.18-2.918m6.42 6.013c-.357.281-1.455.832-3.293 1.65.11.18.549.41 1.318.691.822.282 1.343.576 1.563.883.74 1.075 1.112 2.56 1.112 4.453 0 2.33-1.126 4.096-3.375 5.298-1.84.973-4.156 1.485-6.955 1.535-.192 0-.576.065-1.152.193s-.906.191-.988.191h-6.996c-.082-.793-.014-2.29.206-4.491.219-2.482.329-4.12.329-4.914 0-.665-.22-3.186-.658-7.562v-3.633c.274-3.403.41-4.977.41-4.722.193-.384 1.428-.576 3.705-.576l5.803.384 2.016-.115c1.866 0 3.992.96 6.379 2.879.576.436.89 1.178.946 2.227.027.23.04.653.04 1.267 0 .512.015.896.042 1.152.248.998.37.92.37 1.252 0 .896-.274 1.549-.822 1.958m25.093-12.691a28.074 28.074 0 0 0 0 2.18c.055.649.055 1.065 0 1.246-.138.494-.864.74-2.181.74l-9.661-.233c-1.51 0-2.84.169-3.991.506-.165.83-.29 4.128-.371 6.828 0 .077-.041.18-.123.31-.083.157-.124.287-.124.39 0 .208.137.403.412.584.219.182.41.273.576.273l3.415-.35 3.827.233c1.29 0 4.97-.064 7.85-.194l-.123.155c.109.364.165.987.165 1.869 0 1.35-.193 2.155-.576 2.414h-5.546c-.11 0-.823-.09-2.14-.272-1.317-.156-2.03-.234-2.14-.234h-3.457c-.686.053-1.138.247-1.358.584.137-.181-.123 1.895-.781 6.23.548.467 1.824.7 3.827.7H75.06c.219 0 .713.092 1.48.273-.026-.103.042.61.207 2.142 0 .078.068.22.206.428.109.208.164.364.164.467v.662H56.634c.082.027-.042-.103-.371-.39-.027-.414.013-1.18.124-2.296.136-1.22.205-2 .205-2.337l-.493-19.053.164-1.441c.082-.96.124-1.661.124-2.103 5.185-.597 8.326-.895 9.423-.895l11.513.584zm4.69 14.495c-1.015-6.475-1.454-10.454-1.317-11.939.083-.409.22-.73.412-.96.356-.128.905-.192 1.646-.192l1.07.077c.603.052 1.001.077 1.193.077.055.589.082 2.034.082 4.338.027.23.11.64.247 1.228.137.537.206.871.206.998 0 2.201.453 3.788 1.358 4.76 1.125 0 .298-.012.71-.038.603-.051 1.673-.166 3.21-.345l2.1-.231-1.077.116c.823 0 1.317-.128 1.482-.384.11-.205.178-.922.205-2.15l-.41-5.144.081-3.148a4.335 4.335 0 0 1 1.194-.154c2.03 0 4.721.064 4.941.192.302.18.425 1.024.37 2.534l-.946 8.561c-.027 1.484.083 3.519.33 6.103.274 2.56.411 3.711.411 3.455 0-.128-.22.628-.658 2.265-.138.512-.193 1.511-.166 2.995-.41.359-2.307.524-2.554.499h-3.21c-.384-1.229-.41-4.658-.082-10.288.027-.436-.069-.717-.288-.845-1.317.026-.75 0-3.08-.077l-3.252-.115h-.257c-2.442.026-3.759-.704-3.95-2.188m49.073-13.22c-.276.154-.77.512-1.483 1.075-.163.128-.37.359-.616.69-.275.385-.48.64-.617.768-3.02 2.714-3.7 3.182-3.507 2.977-.274.307-1.363.887-1.994 1.859l-4.612 5.02c-.11.18-.456.28-1.17.946-.575.563-1.566 1.659-1.814.307-.135-.732.755 1.818 2.264 3.225 1.646 1.127 3.25 2.713 4.814 4.76l2.783 4.607c-.55 0-1.468.052-2.756.154l-1.18.153c-.795 0-1.74-.576-2.838-1.728-.303-.306-.768-.831-1.4-1.573-.631-.768-1.111-1.318-1.44-1.651l-4.994-4.607c-1.757 1.638-2.608 2.662-2.552 3.07.247 1.588.164 3.789-.247 6.604h-4.116c-.328-.18-.44-.754-.328-1.727.19-1.664.288-2.406.288-2.227 0-.102-.083-.511-.248-1.228-.191-.717-.287-1.152-.287-1.305 0-.282.068-1.05.205-2.304.109-1.152.15-2.047.123-2.687-.027-.486.042-1.33.207-2.534v-4.53c-.358-1.69-.535-3.147-.535-4.376 0-1.612.287-2.802.863-3.57l2.634.192c1.07.102 1.797.37 2.18.806-.054 1.1-.191 2.828-.41 5.183l-.288 3.339c0 1.1.123 2.112.37 3.033.85-.793 6.075-4.165 8.902-7.211 2.715-2.918 4.785-4.118 6.18-6.24 2.193-.385 2.638 0 3.873 0 2.525 0 3.772.014 3.746.039v.69zM144.4 45.68c-.411-1.28.327-8.036-.332-9.264-.33.717-3.058 4.235-4.457 6.695-.79 1.388-2.39 5.99-2.856 6.783.52-.026 1.454-.013 2.799.038 1.343.077 4.44-.163 5.045-.188-.714-1.536.075-3.27-.2-4.064zm1.533 12.635c-.468-.665-.961-2.471-1.482-3.93-6.475.154-9.7.218-9.671.192.247-.128-.206 1.614-1.358 3.738l-6.46-.23c1.262-2.38.895-3.186 4.105-8.965 1.377-2.328 3.264-5.948 3.977-7.125.878-1.46 2.325-3.746 3.695-6.06-.165.333 2.332-1.922 3.84-5.25.467.206 6.13-1.108 6.406-.52.192.359.544 3.398.765 4.19.247.922-.138 2.002 0 2.309.136.358-.15 2.402 0 3.595.298 2.397-.22 4.436 0 4.948 1.244 8.69.564 9.558 1.244 13.108h-5.061z"/></g></g></symbol><symbol id="icon-instagram-dark"><path d="M22.931 6.76a8.441 8.441 0 0 0-.534-2.792 5.638 5.638 0 0 0-1.328-2.037A5.638 5.638 0 0 0 19.032.603a8.441 8.441 0 0 0-2.79-.534C15.014.013 14.622 0 11.5 0 8.377 0 7.986.013 6.76.069a8.45 8.45 0 0 0-2.792.534 5.638 5.638 0 0 0-2.039 1.328A5.638 5.638 0 0 0 .602 3.967a8.441 8.441 0 0 0-.534 2.791C.013 7.986 0 8.378 0 11.5c0 3.123.013 3.514.069 4.74.019.955.2 1.899.534 2.793a5.64 5.64 0 0 0 1.328 2.036 5.636 5.636 0 0 0 2.036 1.328 8.441 8.441 0 0 0 2.791.534c1.228.056 1.62.069 4.742.069 3.123 0 3.514-.013 4.74-.069a8.441 8.441 0 0 0 2.793-.534 5.88 5.88 0 0 0 3.364-3.364 8.441 8.441 0 0 0 .534-2.791c.056-1.228.069-1.62.069-4.742 0-3.123-.013-3.514-.069-4.74zm-2.07 9.387a6.36 6.36 0 0 1-.396 2.134 3.808 3.808 0 0 1-2.183 2.184 6.362 6.362 0 0 1-2.135.396c-1.214.055-1.576.066-4.647.066-3.07 0-3.435-.011-4.647-.066a6.362 6.362 0 0 1-2.134-.396 3.562 3.562 0 0 1-1.324-.86 3.562 3.562 0 0 1-.86-1.323 6.36 6.36 0 0 1-.396-2.135c-.055-1.214-.066-1.576-.066-4.647 0-3.07.011-3.435.066-4.647.009-.729.143-1.45.396-2.134.184-.5.478-.953.86-1.324a3.562 3.562 0 0 1 1.323-.86 6.362 6.362 0 0 1 2.135-.396c1.214-.055 1.577-.066 4.647-.066 3.07 0 3.435.011 4.647.066.729.009 1.45.143 2.134.396.5.184.953.478 1.324.86.382.371.676.823.86 1.323.253.683.387 1.406.396 2.135.055 1.214.066 1.577.066 4.647 0 3.07-.011 3.435-.066 4.647zM11.5 5.594a5.906 5.906 0 1 0 0 11.812 5.906 5.906 0 0 0 0-11.812zm0 9.74a3.833 3.833 0 1 1 0-7.667 3.833 3.833 0 0 1 0 7.666zm7.518-9.972a1.38 1.38 0 1 1-2.76 0 1.38 1.38 0 0 1 2.76 0z" fill="#4A4A4A"/></symbol><symbol id="icon-instagram"><path d="M22.931 6.76a8.441 8.441 0 0 0-.534-2.792 5.638 5.638 0 0 0-1.328-2.037A5.638 5.638 0 0 0 19.032.603a8.441 8.441 0 0 0-2.79-.534C15.014.013 14.622 0 11.5 0 8.377 0 7.986.013 6.76.069a8.45 8.45 0 0 0-2.792.534 5.638 5.638 0 0 0-2.039 1.328A5.638 5.638 0 0 0 .602 3.967a8.441 8.441 0 0 0-.534 2.791C.013 7.986 0 8.378 0 11.5c0 3.123.013 3.514.069 4.74.019.955.2 1.899.534 2.793a5.64 5.64 0 0 0 1.328 2.036 5.636 5.636 0 0 0 2.036 1.328 8.441 8.441 0 0 0 2.791.534c1.228.056 1.62.069 4.742.069 3.123 0 3.514-.013 4.74-.069a8.441 8.441 0 0 0 2.793-.534 5.88 5.88 0 0 0 3.364-3.364 8.441 8.441 0 0 0 .534-2.791c.056-1.228.069-1.62.069-4.742 0-3.123-.013-3.514-.069-4.74zm-2.07 9.387a6.36 6.36 0 0 1-.396 2.134 3.808 3.808 0 0 1-2.183 2.184 6.362 6.362 0 0 1-2.135.396c-1.214.055-1.576.066-4.647.066-3.07 0-3.435-.011-4.647-.066a6.362 6.362 0 0 1-2.134-.396 3.562 3.562 0 0 1-1.324-.86 3.562 3.562 0 0 1-.86-1.323 6.36 6.36 0 0 1-.396-2.135c-.055-1.214-.066-1.576-.066-4.647 0-3.07.011-3.435.066-4.647.009-.729.143-1.45.396-2.134.184-.5.478-.953.86-1.324a3.562 3.562 0 0 1 1.323-.86 6.362 6.362 0 0 1 2.135-.396c1.214-.055 1.577-.066 4.647-.066 3.07 0 3.435.011 4.647.066.729.009 1.45.143 2.134.396.5.184.953.478 1.324.86.382.371.676.823.86 1.323.253.683.387 1.406.396 2.135.055 1.214.066 1.577.066 4.647 0 3.07-.011 3.435-.066 4.647zM11.5 5.594a5.906 5.906 0 1 0 0 11.812 5.906 5.906 0 0 0 0-11.812zm0 9.74a3.833 3.833 0 1 1 0-7.667 3.833 3.833 0 0 1 0 7.666zm7.518-9.972a1.38 1.38 0 1 1-2.76 0 1.38 1.38 0 0 1 2.76 0z" fill="#786D5C"/></symbol><symbol id="icon-magic-wand"><path d="M12.3 29.848l-2.405.643.645 2.404a2.245 2.245 0 0 1-1.589 2.752 2.25 2.25 0 0 1-2.754-1.59l-.645-2.405-2.405.643c-.6.16-1.208.063-1.706-.225a2.245 2.245 0 0 1 .54-4.117l2.405-.643-.646-2.404a2.245 2.245 0 0 1 1.59-2.752 2.25 2.25 0 0 1 2.754 1.59l.645 2.405 2.405-.643a2.25 2.25 0 0 1 2.755 1.59 2.245 2.245 0 0 1-1.59 2.752zm7.731 14.098l-6.958 1.86a2.245 2.245 0 0 0-.54 4.117 2.243 2.243 0 0 0 1.706.226l6.958-1.861a2.245 2.245 0 0 0 1.589-2.752 2.25 2.25 0 0 0-2.755-1.59zm57.708-11.46a2.243 2.243 0 0 0 1.707.225l6.958-1.86a2.245 2.245 0 0 0 1.589-2.753 2.25 2.25 0 0 0-2.755-1.59l-6.958 1.86a2.245 2.245 0 0 0-.54 4.118zM39.75 9.792c.162.6.55 1.078 1.049 1.365a2.245 2.245 0 0 0 3.295-2.527l-1.868-6.956a2.25 2.25 0 0 0-2.754-1.59 2.245 2.245 0 0 0-1.589 2.752l1.868 6.956zm52.149 42.36a2.25 2.25 0 0 0 2.754 1.591 2.245 2.245 0 0 0 1.59-2.752l-.646-2.404L98 47.944a2.245 2.245 0 0 0 1.588-2.751 2.25 2.25 0 0 0-2.754-1.59l-2.405.642-.646-2.404a2.25 2.25 0 0 0-2.754-1.59 2.245 2.245 0 0 0-1.59 2.751l.647 2.405-2.405.643a2.245 2.245 0 0 0-.54 4.117 2.243 2.243 0 0 0 1.706.225l2.405-.643.645 2.404zm-8.553 29.823l4.456-1.192a2.245 2.245 0 0 0 1.59-2.752 2.25 2.25 0 0 0-2.755-1.59l-4.457 1.191-1.196-4.455a2.25 2.25 0 0 0-2.754-1.59 2.245 2.245 0 0 0-1.59 2.752l1.197 4.455-4.456 1.192a2.245 2.245 0 0 0-1.589 2.752 2.25 2.25 0 0 0 2.755 1.59l4.456-1.191 1.196 4.454c.16.6.55 1.078 1.048 1.365a2.245 2.245 0 0 0 3.295-2.527l-1.196-4.454zm-23.618-15.11a2.25 2.25 0 0 0-2.754-1.591 2.245 2.245 0 0 0-1.59 2.752l1.869 6.956c.16.6.55 1.078 1.048 1.365a2.245 2.245 0 0 0 3.295-2.527l-1.868-6.956zM77.52 54.366a2.247 2.247 0 0 1-2.296 1.095L53.418 52.03l-16.84 13.591-25.744 44.591a2.248 2.248 0 0 1-3.071.821 2.248 2.248 0 0 1-.824-3.07l25.744-44.591 3.35-21.38-13.875-17.168a2.247 2.247 0 0 1 2.097-3.631l21.806 3.432 17.165-13.854a2.249 2.249 0 0 1 3.635 2.099l-3.415 21.792L77.32 51.831a2.25 2.25 0 0 1 .199 2.536zm-7.365-4.252L60.24 37.847l-4.258 1.138a2.25 2.25 0 0 1-2.755-1.59 2.246 2.246 0 0 1 1.59-2.752l4.257-1.138 2.44-15.572-12.266 9.9 1.143 4.255a2.245 2.245 0 0 1-1.589 2.752 2.25 2.25 0 0 1-2.754-1.59l-1.143-4.256-15.583-2.453 9.915 12.269 4.258-1.139a2.25 2.25 0 0 1 2.754 1.59 2.245 2.245 0 0 1-1.588 2.752l-4.258 1.14-2.44 15.572 12.266-9.9-1.143-4.256a2.245 2.245 0 0 1 1.589-2.752 2.25 2.25 0 0 1 2.754 1.59l1.143 4.257 15.582 2.451z" fill="#C8C8C8"/></symbol><symbol id="icon-phone"><path d="M13.5 17.4c-1.05 0-2.25-.3-3.6-.975-1.65-.825-3.3-2.025-4.875-3.6-1.5-1.5-2.775-3.225-3.6-4.875-1.275-2.625-1.35-4.8-.075-6 .3-.3.75-.3 1.05 0 .3.3.3.75 0 1.05-.75.75-.6 2.4.375 4.35.75 1.5 1.875 3.075 3.3 4.5 1.425 1.425 3 2.55 4.5 3.3 1.95.975 3.6 1.125 4.35.375.3-.3.75-.3 1.05 0 .3.3.3.75 0 1.05-.6.525-1.425.825-2.475.825zM5.115 6.96a.64.64 0 0 1 .103-.174c.05-.066.11-.129.182-.186a.915.915 0 0 1 .326-.12L7.2 5.775c.3-.15.675-.525.6-.975 0-.225-.15-.375-.3-.525l-2.475-2.55c-.225-.225-.6-.3-.975-.225l-.45.225L2.4 3c-.3.3-.75.3-1.05 0-.3-.3-.3-.75 0-1.05l1.2-1.2c.3-.3.675-.525 1.05-.6.9-.225 1.8 0 2.475.6L8.55 3.225c.375.375.6.9.675 1.425.15.975-.45 2.025-1.425 2.55l-.748.358c.445.578.937 1.157 1.498 1.667a43.032 43.032 0 0 0 1.839 1.61l.411-.86C11.325 9 12.3 8.4 13.35 8.55c.525.075.975.3 1.35.675l2.475 2.475c.675.675.9 1.575.6 2.475-.15.375-.3.75-.6 1.05L15.9 16.5a.68.68 0 0 1-.525.225.68.68 0 0 1-.525-.225c-.3-.3-.3-.75 0-1.05l1.2-1.2c.15-.15.225-.225.225-.45.075-.375 0-.75-.225-.975l-2.475-2.475c-.15-.15-.375-.225-.525-.3-.45-.075-.825.225-.975.6l-.825 1.725c-.15.375-.6.525-.975.3a.659.659 0 0 1-.1-.05 11.203 11.203 0 0 1-.05-.025c-.9-.675-1.8-1.425-2.7-2.25-.9-.9-1.65-1.8-2.25-2.7a.676.676 0 0 1-.06-.69z"/></symbol><symbol id="icon-send-email"><path d="M22.218.124a2.733 2.733 0 0 0-.86.207h-.004c-.264.105-1.514.634-3.416 1.436l-6.814 2.885c-4.89 2.07-9.696 4.107-9.696 4.107l.057-.022s-.331.11-.677.348a1.878 1.878 0 0 0-.541.526c-.17.25-.307.634-.256 1.03.083.67.515 1.072.825 1.294.314.225.613.33.613.33h.008l4.507 1.526c.202.652 1.374 4.524 1.655 5.416.166.532.328.866.53 1.12.098.13.212.238.35.326.071.041.148.074.227.098l-.046-.011c.014.004.025.015.035.018.037.01.062.014.109.022.713.217 1.286-.229 1.286-.229l.033-.026 2.661-2.436 4.46 3.44.102.044c.93.41 1.87.182 2.368-.22.502-.406.696-.925.696-.925l.033-.084L23.91 2.593c.097-.438.122-.848.014-1.247a1.676 1.676 0 0 0-.72-.971 1.72 1.72 0 0 0-.986-.25zm-.093 1.903c-.003.058.008.052-.018.164v.01l-3.415 17.567c-.014.025-.04.08-.108.135-.072.057-.129.093-.429-.026L12.7 15.672l-3.296 3.02.693-4.445 8.913-8.352c.367-.344.244-.416.244-.416.026-.421-.554-.124-.554-.124l-11.24 7-.003-.018-5.387-1.824v-.003l-.014-.003a.248.248 0 0 0 .027-.011l.03-.015.029-.01 9.7-4.108c2.447-1.036 4.914-2.08 6.81-2.886 1.898-.8 3.3-1.388 3.38-1.42.075-.03.039-.03.093-.03z" fill="#786D5C"/></symbol><symbol id="icon-vk"><path d="M4.28 0C1.936 0 0 1.936 0 4.28v14.44C0 21.064 1.936 23 4.28 23h14.44c2.344 0 4.28-1.936 4.28-4.28V4.28C23 1.936 21.064 0 18.72 0H4.28zm0 2.09h14.44c1.213 0 2.19.977 2.19 2.19v14.44c0 1.213-.977 2.19-2.19 2.19H4.28a2.184 2.184 0 0 1-2.19-2.19V4.28c0-1.213.977-2.19 2.19-2.19zm3.136 3.726v11.368h4.705c2.147 0 4.443-.934 4.443-3.495 0-2.075-1.617-2.598-2.32-2.744v-.033a2.593 2.593 0 0 0 1.569-2.45c0-1.67-1.128-2.646-3.953-2.646H7.416zm2.908 2.09h1.34c1.18 0 1.241.96 1.241 1.143 0 .74-.531 1.242-1.21 1.242-.195 0-1.371.033-1.371.033V7.907zm0 4.346s1.429-.009 1.731 0c.303.008 1.568.069 1.568 1.404 0 1.332-1.318 1.426-1.6 1.437-.283.013-1.7 0-1.7 0v-2.841z" fill="#786D5C"/></symbol><symbol id="icon-whatsapp"><path d="M24 11.67c0 6.385-5.274 11.562-11.782 11.562-1.99.003-3.95-.492-5.695-1.439L0 23.843l2.127-6.203a11.347 11.347 0 0 1-1.691-5.97C.436 5.284 5.711.107 12.218.107 18.726.107 24 5.284 24 11.67M12.218 1.948c-5.462 0-9.905 4.361-9.905 9.722 0 2.127.7 4.097 1.886 5.7l-1.237 3.61 3.807-1.197a9.979 9.979 0 0 0 5.45 1.608c5.461 0 9.905-4.36 9.905-9.721 0-5.36-4.444-9.722-9.906-9.722m5.95 12.384c-.073-.117-.265-.189-.554-.33-.289-.142-1.71-.828-1.973-.922-.265-.094-.458-.142-.65.142-.193.283-.746.921-.915 1.11-.169.19-.337.214-.626.072-.288-.142-1.219-.441-2.322-1.407-.858-.75-1.438-1.678-1.607-1.962-.168-.284-.017-.437.127-.578.13-.127.29-.33.433-.496.145-.166.193-.284.289-.473.097-.19.048-.355-.024-.497-.072-.141-.65-1.536-.89-2.103-.241-.568-.482-.473-.65-.473-.169 0-.361-.024-.554-.024-.193 0-.506.071-.77.355-.265.283-1.01.97-1.01 2.363 0 1.395 1.034 2.743 1.178 2.932.145.188 1.998 3.143 4.934 4.278 2.936 1.134 2.936.756 3.466.708.529-.047 1.708-.685 1.95-1.347.24-.662.24-1.23.168-1.348" fill="#786D5C"/></symbol></svg>
